<svg class="iconify iconify--twemoji" width="800px" height="800px" aria-hidden="true" role="img" version="1.1" viewBox="0 0 36 36" xmlns="http://www.w3.org/2000/svg">
 <circle cx="18" cy="18" r="18" fill="#c92a60" stroke="#000" stroke-width=".012926"/>
 <g fill="#FFF">
  <path d="m18 22.5c-4.687 0-8.5-3.813-8.5-8.5s3.813-8.5 8.5-8.5 8.5 3.813 8.5 8.5-3.813 8.5-8.5 8.5zm0-14c-3.033 0-5.5 2.468-5.5 5.5s2.467 5.5 5.5 5.5 5.5-2.468 5.5-5.5-2.467-5.5-5.5-5.5z"/>
  <path d="m18 31.5a1.5 1.5 0 0 1-1.5-1.5v-9a1.5 1.5 0 1 1 3 0v9a1.5 1.5 0 0 1-1.5 1.5z"/>
  <path d="m22.875 27.5h-9.75a1.5 1.5 0 1 1 0-3h9.75a1.5 1.5 0 1 1 0 3z"/>
 </g>
</svg>
