<svg class="iconify iconify--twemoji" width="800px" height="800px" aria-hidden="true" role="img" version="1.1" viewBox="0 0 36 36" xmlns="http://www.w3.org/2000/svg">
 <circle cx="18" cy="18" r="18" fill="#5966bc" stroke="#000" stroke-width=".012926"/>
 <path d="m15 30.5c-4.687 0-8.5-3.813-8.5-8.5s3.813-8.5 8.5-8.5 8.5 3.813 8.5 8.5-3.813 8.5-8.5 8.5zm0-14c-3.032 0-5.5 2.468-5.5 5.5s2.468 5.5 5.5 5.5 5.5-2.468 5.5-5.5-2.468-5.5-5.5-5.5z" fill="#FFF"/>
 <path d="M28.5 7h-8.969a1.5 1.5 0 1 0 0 3h5.348l-7 6.879L20 19l7-6.879V17.5a1.5 1.5 0 0 0 3 0v-9A1.5 1.5 0 0 0 28.5 7z" fill="#FFF"/>
</svg>
